# xmcd
#
# Track frame offsets:
#	150
#	14150
#	26755
#	42708
#	56126
#	68330
#	80581
#	92927
#	107321
#	119564
#	132056
#	143682
#	156737
#	169484
#	178894
#	192890
#	204962
#
# Disc length: 2882 seconds
#
# Revision: 1
# Processed by: cddbd v1.5.1PL0 Copyright (c) Steve Scherf et al.
# Submitted via: audiograbber 1.83.01
#
DISCID=fb0b4011
DTITLE=Sonny Terry - Ultimate Jazz and Blues
DYEAR=1900
DGENRE=
TTITLE0=Sweet Woman
TTITLE1=Harmonica Stomp
TTITLE2=Lonesome Train
TTITLE3=Custard Pie Blues
TTITLE4=Harmonica Blues
TTITLE5=New Love Blues
TTITLE6=Beer Garden Blues
TTITLE7=Hot Headed Blues
TTITLE8=Whoopin' the Blues
TTITLE9=Train Whistle Blues
TTITLE10=Crow Jane Blues
TTITLE11=Blowing the BLues
TTITLE12=Screaming and Crying Blues
TTITLE13=Fox Chase
TTITLE14=All Alone Blues
TTITLE15=Worried Man Blues
TTITLE16=Harmonica and Washboard Blues
EXTD=
EXTT0=
EXTT1=
EXTT2=
EXTT3=
EXTT4=
EXTT5=
EXTT6=
EXTT7=
EXTT8=
EXTT9=
EXTT10=
EXTT11=
EXTT12=
EXTT13=
EXTT14=
EXTT15=
EXTT16=
PLAYORDER=
